HIERARCHY
ROOT hip
{
	OFFSET 0.000000 0.000000 0.000000 
	CHANNELS 6 Xposition Yposition Zposition Xrotation Zrotation Yrotation
	JOINT abdomen
	{
		OFFSET 0.000000 3.402643 0.000000 
		CHANNELS 3 Xrotation Zrotation Yrotation
		JOINT chest
		{
			OFFSET 0.000000 8.438565 -0.680529 
			CHANNELS 3 Xrotation Zrotation Yrotation
			JOINT neck
			{
				OFFSET 0.000000 10.207942 -0.272212 
				CHANNELS 3 Xrotation Zrotation Yrotation
				JOINT head
				{
					OFFSET 0.000000 3.130431 0.000000 
					CHANNELS 3 Xrotation Zrotation Yrotation
					End Site
					{
						OFFSET 0.000000 3.130435 0.000000 
					}
				}
			}
			JOINT lCollar
			{
				OFFSET 3.470700 6.669187 -0.816635 
				CHANNELS 3 Yrotation Zrotation Xrotation
				JOINT lShldr
				{
					OFFSET 3.198488 0.000000 0.000000 
					CHANNELS 3 Zrotation Yrotation Xrotation
					JOINT lForeArm
					{
						OFFSET 10.139888 0.000000 0.000000 
						CHANNELS 3 Yrotation Zrotation Xrotation
						JOINT lHand
						{
							OFFSET 8.370511 0.000000 0.000000 
							CHANNELS 3 Zrotation Yrotation Xrotation
							End Site
							{
								OFFSET 4.083176 0.000000 0.000000 
							}
						}
					}
				}
			}
			JOINT rCollar
			{
				OFFSET -3.470700 6.669187 -0.816635 
				CHANNELS 3 Yrotation Zrotation Xrotation
				JOINT rShldr
				{
					OFFSET -3.198488 0.000000 0.000000 
					CHANNELS 3 Zrotation Yrotation Xrotation
					JOINT rForeArm
					{
						OFFSET -10.139888 0.000000 0.000000 
						CHANNELS 3 Yrotation Zrotation Xrotation
						JOINT rHand
						{
							OFFSET -8.370511 0.000000 0.000000 
							CHANNELS 3 Zrotation Yrotation Xrotation
							End Site
							{
								OFFSET -4.083176 0.000000 0.000000 
							}
						}
					}
				}
			}
		}
	}
	JOINT lThigh
	{
		OFFSET 5.308129 -1.633274 1.361059 
		CHANNELS 3 Xrotation Zrotation Yrotation
		JOINT lShin
		{
			OFFSET -2.041588 -20.007561 0.000000 
			CHANNELS 3 Xrotation Zrotation Yrotation
			JOINT lFoot
			{
				OFFSET 0.000000 -19.190928 -1.224953 
				CHANNELS 3 Xrotation Yrotation Zrotation
				End Site
				{
					OFFSET 0.000000 -2.449906 4.627600 
				}
			}
		}
	}
	JOINT rThigh
	{
		OFFSET -5.308129 -1.633274 1.361059 
		CHANNELS 3 Xrotation Zrotation Yrotation
		JOINT rShin
		{
			OFFSET 2.041588 -20.007561 0.000000 
			CHANNELS 3 Xrotation Zrotation Yrotation
			JOINT rFoot
			{
				OFFSET 0.000000 -19.190928 -1.224953 
				CHANNELS 3 Xrotation Yrotation Zrotation
				End Site
				{
					OFFSET 0.000000 -2.449906 4.627600 
				}
			}
		}
	}
}
MOTION
Frames: 17
Frame Time: 0.016667
-0.643523 50.062752 0.461038 8.407082 -2.589102 1.648683 19.026375 -0.987848 -0.125905 -18.172537 3.127200 0.830040 -12.727540 -1.219295 -2.244221 13.940188 4.493141 -1.268409 1.993417 -2.013218 -0.007815 -88.019592 7.246743 15.833130 -42.807636 1.049823 6.246091 13.398438 0.000000 2.529297 -2.003164 1.994041 -0.018257 89.994858 -5.477338 3.629387 33.963390 -2.490713 0.217299 -3.871006 0.595158 2.451344 -16.602503 4.508683 2.972874 29.287680 -3.515987 -2.091202 -2.998014 -0.020008 0.012908 -13.686143 -2.011317 5.443769 27.131136 3.519914 1.965105 -0.488022 0.014859 0.005706 
-0.760316 50.039413 0.451574 8.476376 -2.714211 1.675730 19.191933 -0.903851 -0.070570 -17.862993 3.318647 0.864885 -12.864718 -1.304319 -2.348706 13.910254 4.465272 -1.326557 1.993417 -2.013218 -0.007815 -87.990784 6.820320 15.926511 -42.660431 1.045391 6.251108 13.398438 0.000000 2.529297 -2.003164 1.994041 -0.018257 89.847466 -5.184957 3.627601 34.178455 -2.495363 0.218552 -3.871006 0.595158 2.451344 -16.801409 4.724728 3.127095 29.247644 -3.516055 -2.107198 -2.958964 -0.014120 0.004773 -13.827205 -1.630405 6.251005 27.156948 3.559663 1.946240 -0.496725 0.033902 0.013023 
-0.870368 50.036579 0.440159 8.565424 -2.858438 1.649292 19.220753 -0.811478 -0.029108 -17.836128 3.449341 0.873615 -12.776905 -1.323822 -2.424515 13.949429 4.464518 -1.362578 1.993417 -2.013218 -0.007815 -87.967918 6.628223 15.763395 -42.357044 1.044243 6.253950 13.398438 0.000000 2.529297 -2.003164 1.994041 -0.018257 89.711533 -5.019273 3.626749 34.237103 -2.495138 0.221103 -3.871006 0.595158 2.451344 -16.983013 4.889350 2.708936 29.314987 -3.536189 -2.097591 -2.978307 -0.043339 0.013912 -13.963387 -1.162284 7.090699 27.134857 3.582342 1.940104 -0.496370 0.041617 0.005525 
-0.951045 50.046970 0.473641 8.663273 -2.867355 1.574593 19.210808 -0.774639 -0.006347 -17.818577 3.551988 0.881053 -12.542770 -1.382235 -2.436747 14.037570 4.462813 -1.375270 1.993417 -2.013218 -0.007815 -87.992859 6.534451 15.454963 -41.956463 1.046535 6.248664 13.398438 0.000000 2.529297 -2.003164 1.994041 -0.018257 89.601929 -4.999565 3.665664 34.246883 -2.495100 0.221528 -3.871006 0.595158 2.451344 -17.077507 4.891856 2.322234 29.287498 -3.520779 -2.082642 -2.988233 -0.015790 -0.006462 -14.046483 -0.987135 7.512753 27.086430 3.572723 1.944153 -0.498045 -0.001686 0.009814 
-1.024904 50.055870 0.510511 8.780455 -2.847153 1.454525 19.181383 -0.747106 0.042741 -17.810484 3.635862 0.903668 -12.269775 -1.479112 -2.451902 14.144927 4.441778 -1.391205 1.993417 -2.013218 -0.007815 -88.037003 6.450507 15.118587 -41.574726 1.047530 6.257782 13.398438 0.000000 2.529297 -2.003164 1.994041 -0.018257 89.491508 -4.979800 3.715156 34.237103 -2.495138 0.221103 -3.871006 0.595158 2.451344 -17.141027 4.939207 2.251296 29.266449 -3.520818 -2.119473 -2.949201 0.005849 0.012939 -14.099728 -0.898242 7.639870 27.029264 3.559615 1.927307 -0.497559 0.017143 0.017047 
-1.092620 50.064102 0.533375 8.897709 -2.836600 1.274434 19.161688 -0.710296 0.114415 -17.782471 3.701552 0.933530 -11.948288 -1.633763 -2.466966 14.280914 4.382314 -1.424333 1.993417 -2.013218 -0.007815 -88.070854 6.414121 14.753121 -41.272102 1.052999 6.253932 13.398438 0.000000 2.529297 -2.003164 1.994041 -0.018257 89.392235 -4.901401 3.792992 34.207779 -2.495251 0.219828 -3.871006 0.595158 2.451344 -17.237608 4.977536 2.182343 29.298225 -3.506246 -2.099283 -2.998001 -0.018925 0.002802 -14.214682 -0.859986 7.590424 26.977951 3.582241 1.909290 -0.497039 0.026171 0.020515 
-1.174699 50.069897 0.561904 8.955999 -2.787912 1.220541 19.190830 -0.673278 0.126897 -17.755865 3.832365 0.942020 -11.763497 -1.768721 -2.454175 14.368491 4.352219 -1.424872 1.993417 -2.013218 -0.007815 -88.153259 6.367306 14.408153 -40.978481 1.051014 6.257739 13.398438 0.000000 2.529297 -2.003164 1.994041 -0.018257 89.276604 -4.861698 3.920314 34.256676 -2.500556 0.213880 -3.871006 0.595158 2.451344 -17.279837 5.027513 2.228129 29.277849 -3.515947 -2.090482 -2.988276 -0.005473 -0.002240 -14.221292 -0.860303 7.550974 26.976429 3.591883 1.921116 -0.505917 0.037520 0.024878 
-1.253335 50.078804 0.585862 9.014218 -2.729591 1.129214 19.219946 -0.627052 0.181695 -17.729759 3.981821 0.964879 -11.725111 -1.874152 -2.423809 14.397317 4.323273 -1.429916 1.993417 -2.013218 -0.007815 -88.247009 6.318200 14.131094 -40.704422 1.054367 6.268455 13.398438 0.000000 2.529297 -2.003164 1.994041 -0.018257 89.147926 -4.870691 4.047636 34.364197 -2.500151 0.218566 -3.871006 0.595158 2.451344 -17.302500 5.077515 2.263613 29.256121 -3.541097 -2.075073 -2.988264 -0.009332 -0.003819 -14.287413 -0.860257 7.400153 27.027214 3.568055 1.958305 -0.517266 0.016795 0.006454 
-1.320685 50.091347 0.598041 9.121539 -2.699848 1.011556 19.210041 -0.590202 0.233722 -17.712067 4.065979 0.998166 -11.705832 -1.912535 -2.406765 14.397317 4.323273 -1.429916 1.993417 -2.013218 -0.007815 -88.345169 6.295402 13.924113 -40.470474 1.058775 6.258832 13.398438 0.000000 2.529297 -2.003164 1.994041 -0.018257 89.067039 -4.850914 4.096289 34.393524 -2.500039 0.219844 -3.871006 0.595158 2.451344 -17.362465 5.087693 2.128027 29.219372 -3.511071 -2.085052 -2.978490 -0.014664 0.004548 -14.449484 -0.888971 7.117993 27.046906 3.568107 1.959733 -0.497485 0.025572 -0.000639 
-1.410063 50.098904 0.623498 9.111763 -2.699922 1.138968 19.239065 -0.507115 0.203799 -17.685703 4.196900 0.967890 -11.647273 -1.922504 -2.426283 14.426874 4.332163 -1.435046 1.993417 -2.013218 -0.007815 -88.436218 6.298573 13.806604 -40.284504 1.058965 6.263931 13.398438 0.000000 2.529297 -2.003164 1.994041 -0.018257 89.011375 -4.821752 4.086560 34.383751 -2.500076 0.219418 -3.871006 0.595158 2.451344 -17.364519 5.133767 1.947893 29.227982 -3.515977 -2.105759 -2.978458 -0.020759 0.002054 -14.407118 -0.860056 6.943398 27.035683 3.582238 1.952410 -0.487688 0.022494 0.008638 
-1.496925 50.105782 0.638479 9.121612 -2.709491 1.254148 19.268103 -0.414838 0.177185 -17.688351 4.308548 0.951919 -11.539924 -1.942379 -2.445516 14.485624 4.331022 -1.440386 1.993417 -2.013218 -0.007815 -88.513977 6.318595 13.767797 -40.147770 1.060141 6.262542 13.398438 0.000000 2.529297 -2.003164 1.994041 -0.018257 88.951256 -4.831433 4.096290 34.413071 -2.499964 0.220696 -3.871006 0.595158 2.451344 -17.379454 5.184434 1.837075 29.228312 -3.525594 -2.069218 -2.968673 -0.023474 0.000945 -14.388960 -0.840394 6.709305 27.045530 3.582268 1.953126 -0.497822 0.013996 0.005376 
-1.576219 50.110912 0.638777 9.180050 -2.680122 1.314646 19.267992 -0.377963 0.170550 -17.709965 4.391807 0.933565 -11.471660 -1.961992 -2.443953 14.515000 4.330450 -1.447939 1.993417 -2.013218 -0.007815 -88.609291 6.328080 13.767796 -40.099228 1.065467 6.261637 13.398438 0.000000 2.529297 -2.003164 1.994041 -0.018257 88.883575 -4.899317 4.145766 34.511086 -2.513160 0.222433 -3.871006 0.595158 2.451344 -17.444948 5.212832 1.806734 29.228312 -3.525595 -2.069218 -2.978507 -0.006870 -0.002811 -14.452221 -0.869131 6.414455 27.077477 3.559619 1.959995 -0.497338 0.024837 0.009540 
-1.668368 50.109024 0.647604 9.150650 -2.670702 1.483584 19.297140 -0.294943 0.160352 -17.693855 4.531839 0.919991 -11.413506 -2.029406 -2.422683 14.544374 4.329877 -1.445727 1.993417 -2.013218 -0.007815 -88.740791 6.316748 13.835715 -40.099228 1.065467 6.261637 13.398438 0.000000 2.529297 -2.003164 1.994041 -0.018257 88.809135 -4.947834 4.174949 34.549961 -2.510498 0.210567 -3.871006 0.595158 2.451344 -17.431744 5.273722 1.859126 29.254995 -3.538816 -2.113370 -2.968750 -0.006321 0.007961 -14.418285 -0.859865 6.230897 27.095261 3.572632 1.973988 -0.497569 0.023866 -0.001294 
-1.757173 50.105110 0.651429 9.101555 -2.642140 1.608132 19.326321 -0.230383 0.173070 -17.686920 4.643734 0.923568 -11.336101 -2.135289 -2.414129 14.572825 4.282046 -1.455773 1.993417 -2.013218 -0.007815 -88.920593 6.277501 13.884230 -40.147770 1.060141 6.262542 13.398438 0.000000 2.529297 -2.003164 1.994041 -0.018257 88.730171 -4.947773 4.185520 34.520592 -2.499545 0.225381 -3.871006 0.595158 2.451344 -17.419100 5.321384 1.835692 29.276157 -3.540951 -2.066752 -2.988265 -0.009255 -0.003788 -14.357809 -0.840658 6.077734 27.113647 3.591937 1.950511 -0.497880 0.008602 0.013766 
-1.836830 50.104031 0.639574 9.111117 -2.613141 1.631847 19.336023 -0.165866 0.234738 -17.719730 4.773211 0.938329 -11.277974 -2.202765 -2.402963 14.592407 4.281666 -1.464080 1.993417 -2.013218 -0.007815 -89.128761 6.230361 13.873458 -40.206024 1.053749 6.263624 13.398438 0.000000 2.529297 -2.003164 1.994041 -0.018257 88.642410 -4.957573 4.175791 34.491295 -2.505186 0.216052 -3.871006 0.595158 2.451344 -17.451153 5.303060 1.770168 29.265772 -3.539668 -2.085153 -2.988249 -0.020150 0.012851 -14.396942 -0.860080 5.842409 27.154055 3.592153 1.924258 -0.507718 0.005778 0.012682 
-1.920995 50.092163 0.624703 9.130458 -2.584072 1.723492 19.326216 -0.119799 0.241168 -17.761171 4.855874 0.947435 -11.190021 -2.203436 -2.406342 14.622149 4.299994 -1.447208 1.993417 -2.013218 -0.007815 -89.339165 6.231667 13.823876 -40.313629 1.055769 6.264471 13.398438 0.000000 2.529297 -2.003164 1.994041 -0.018257 88.587486 -4.977421 4.116571 34.432621 -2.499888 0.221548 -3.871006 0.595158 2.451344 -17.543270 5.330138 1.788985 29.316839 -3.516000 -2.103046 -2.978514 -0.000934 0.010166 -14.455146 -0.869655 5.595408 27.202160 3.587399 1.975338 -0.506966 0.027393 0.010525 
-2.010675 50.063156 0.612094 9.149592 -2.526082 1.917467 19.296890 -0.073736 0.198779 -17.871250 4.936604 0.920411 -11.072895 -2.223490 -2.377806 14.680899 4.298846 -1.442816 1.993417 -2.013218 -0.007815 -89.496368 6.297519 13.845417 -40.499599 1.055581 6.259372 13.398438 0.000000 2.529297 -2.003164 1.994041 -0.018257 88.520676 -5.055158 4.146602 34.432621 -2.499888 0.221548 -3.871006 0.595158 2.451344 -17.654278 5.360630 2.042645 29.447767 -3.496982 -2.078562 -2.988283 -0.002275 0.009617 -14.491161 -0.907708 5.332361 27.244083 3.569304 1.964464 -0.506910 0.028282 0.010867 
